<svg width="239" height="302" viewBox="0 0 239 302" fill="none" xmlns="http://www.w3.org/2000/svg">
<path d="M228.849 136.671C222.258 121.922 212.677 108.685 200.705 97.786L190.826 88.7736C190.491 88.476 190.087 88.2648 189.651 88.1585C189.214 88.0523 188.758 88.0542 188.322 88.1642C187.886 88.2742 187.484 88.4888 187.151 88.7893C186.819 89.0898 186.565 89.4669 186.413 89.8875L182 102.478C179.25 110.376 174.191 118.444 167.028 126.376C166.553 126.882 166.01 127.017 165.636 127.051C165.263 127.085 164.686 127.017 164.177 126.545C163.701 126.14 163.464 125.532 163.498 124.925C164.754 104.604 158.643 81.6852 145.267 56.7407C134.2 36.0155 118.821 19.8472 99.6059 8.57321L85.585 0.370898C83.7518 -0.709242 81.4093 0.70844 81.5111 2.83497L82.258 19.0371C82.7672 30.1085 81.4772 39.8973 78.4218 48.0321C74.6874 57.9896 69.3235 67.2383 62.4658 75.5419C57.6934 81.3126 52.2843 86.5323 46.3402 91.1027C32.0241 102.045 20.3833 116.065 12.2895 132.114C4.21556 148.303 0.00985062 166.127 0 184.197C0 200.129 3.15724 215.555 9.40382 230.103C15.4354 244.11 24.1396 256.822 35.0352 267.537C46.0346 278.338 58.7994 286.844 73.0239 292.751C87.7577 298.895 103.374 302 119.5 302C135.626 302 151.242 298.895 165.976 292.785C180.165 286.913 193.069 278.348 203.965 267.571C214.964 256.769 223.587 244.145 229.596 230.137C235.833 215.629 239.033 200.009 239 184.231C239 167.759 235.605 151.759 228.849 136.671Z" fill="url(#paint0_linear_901_6280)"/>
<defs>
<linearGradient id="paint0_linear_901_6280" x1="119.5" y1="0" x2="119.5" y2="302" gradientUnits="userSpaceOnUse">
<stop stop-color="#A92900"/>
<stop offset="0.333333" stop-color="#FF3D00"/>
<stop offset="0.776042" stop-color="#FFBE17" stop-opacity="0.873875"/>
</linearGradient>
</defs>
</svg>
