<svg width="48" height="48" viewBox="0 0 48 48" fill="none" xmlns="http://www.w3.org/2000/svg">
<path d="M22.3539 0L18.2264 2.96562C15.8079 2.19287 13.1439 2.05313 10.4433 2.77244C9.90718 2.91517 9.37767 3.08153 8.85637 3.27103L4.8904 0.40918L4.92153 5.34304C0.907155 8.2932 -1.09594 13.1288 0.612193 19.4649C0.866129 20.4062 1.25992 21.2096 1.75172 21.885L0.425152 27.1858L5.70819 24.4941C9.427 25.4018 13.5243 23.3689 12.529 19.504C12.467 19.0158 12.311 18.526 12.0531 18.0857C11.2891 16.7813 9.94012 16.4067 9.04079 17.249C8.1748 18.0601 8.04141 19.7033 8.7144 20.9887C6.84883 20.7052 5.29814 18.9238 4.8998 16.3587C4.80077 15.7198 4.76056 15.1085 4.77066 14.5243L9.42174 13.3158L5.85977 10.4617C7.18098 8.19766 9.5622 6.78326 12.2299 6.3558L14.0986 10.2487L16.1061 6.4226C17.3818 6.66833 18.6048 7.13279 19.7203 7.79521C20.4495 8.2286 21.1298 8.72809 21.76 9.28304L20.8794 12.8069L23.962 11.7284C25.077 13.2921 25.9056 15.0913 26.4084 17.0287C25.9187 17.0662 25.4135 17.1388 24.9038 17.2391C16.4627 16.7534 11.5963 25.0094 12.4316 32.7898L7.90298 35.5523L13.2288 36.309C13.8984 38.1916 14.9547 39.9531 16.4366 41.4412C17.2761 42.284 18.3361 43.0483 19.5519 43.7136L18.7019 48L22.9272 45.175C28.6769 47.1169 36.0623 47.1973 40.9378 44.1232L45.6881 45.8116L43.8824 41.4978C46.5268 38.272 46.5475 35.0185 45.1893 32.6869L46.7707 28.2903L42.4392 30.0823C41.6997 29.6994 40.8955 29.4552 40.0671 29.362C35.0585 28.8016 30.3206 33.3027 34.2385 38.065C33.5843 34.5225 36.7193 31.8974 38.9876 33.4943C41.1687 35.0296 41.0773 38.7911 38.0068 40.477C36.5059 41.3011 34.7482 41.8262 32.8934 42.0673L30.6562 37.4069L29.4298 42.1952C26.1771 42.0267 22.9233 41.0647 20.4473 39.3831L22.8944 34.3623L17.8215 36.9197C16.9275 35.7236 16.3388 34.3366 16.173 32.7676C16.0439 31.5456 16.0642 30.3766 16.2127 29.2632L21.0947 29.3771L17.054 26.0216C18.0002 23.6203 19.5798 21.57 21.5112 19.9216C21.6802 20.2729 21.8538 20.5995 22.0395 20.9112C23.5047 24.5754 27.1137 26.6443 31.0948 27.253L31.6112 29.9956L34.2853 27.4323C38.6636 27.268 42.9317 25.4412 44.8588 22.1156C47.0495 18.3352 47.7713 12.2036 45.7652 7.39959L48 2.40103L43.4467 3.79544C43.4403 3.78881 43.4341 3.78187 43.4277 3.77514C40.6489 0.876024 36.2864 1.98411 33.4993 4.85038L28.8426 4.18633L31.3739 8.16862C31.0101 9.14431 30.8219 10.1879 30.8612 11.2608C30.846 11.8546 30.9182 12.484 31.0896 13.1198C31.7696 15.6429 33.7467 17.3083 35.5054 16.8399C37.264 16.3713 38.1384 13.9462 37.4585 11.4232C37.2627 10.6966 36.9587 10.0422 36.5838 9.48869C35.2153 10.3268 34.6388 11.5628 34.4864 13.1418C33.966 10.6224 34.3553 9.17595 36.3146 8.05721L36.3166 8.05601C37.5514 7.25734 38.8159 6.99915 39.7381 7.67104C42.9359 9.99974 43.0785 14.941 41.0405 18.8363L37.1097 18.536L38.392 22.1774C37.2738 23.1177 35.9461 23.8116 34.4402 24.1233C32.004 24.6276 29.1223 24.3127 26.5426 23.2888C27.0933 22.5928 27.4692 21.7665 27.716 20.9073C29.9917 14.5743 26.9659 8.04677 21.7818 4.66172L22.3539 0Z" fill="#2468F6"/>
</svg>
