<svg width="32" height="32" viewBox="0 0 32 32" fill="none" xmlns="http://www.w3.org/2000/svg">
<path d="M29.5316 12.875H21.5316C21.3941 12.875 21.2816 12.9875 21.2816 13.125V14.625C21.2816 14.7625 21.3941 14.875 21.5316 14.875H29.5316C29.6691 14.875 29.7816 14.7625 29.7816 14.625V13.125C29.7816 12.9875 29.6691 12.875 29.5316 12.875ZM25.3441 17.125H21.5316C21.3941 17.125 21.2816 17.2375 21.2816 17.375V18.875C21.2816 19.0125 21.3941 19.125 21.5316 19.125H25.3441C25.4816 19.125 25.5941 19.0125 25.5941 18.875V17.375C25.5941 17.2375 25.4816 17.125 25.3441 17.125ZM14.916 10.0781H13.5629C13.3691 10.0781 13.2129 10.2344 13.2129 10.4281V18.1781C13.2129 18.2906 13.266 18.3938 13.3566 18.4594L18.0098 21.8531C18.166 21.9656 18.3848 21.9344 18.4973 21.7781L19.3004 20.6812V20.6781C19.4129 20.5219 19.3785 20.3031 19.2223 20.1906L15.2629 17.3281V10.4281C15.266 10.2344 15.1066 10.0781 14.916 10.0781Z" fill="black"/>
<path d="M25.15 21.0572H23.3438C23.1688 21.0572 23.0031 21.1478 22.9094 21.2978C22.5125 21.926 22.05 22.5072 21.5188 23.0385C20.6031 23.9541 19.5375 24.6728 18.3531 25.1728C17.125 25.6916 15.8219 25.9541 14.4781 25.9541C13.1313 25.9541 11.8281 25.6916 10.6031 25.1728C9.41877 24.6728 8.35315 23.9541 7.43752 23.0385C6.5219 22.1228 5.80315 21.0572 5.30315 19.8728C4.7844 18.6478 4.5219 17.3447 4.5219 15.9978C4.5219 14.651 4.7844 13.351 5.30315 12.1228C5.80315 10.9385 6.5219 9.87283 7.43752 8.9572C8.35315 8.04158 9.41877 7.32283 10.6031 6.82283C11.8281 6.30408 13.1344 6.04158 14.4781 6.04158C15.825 6.04158 17.1281 6.30408 18.3531 6.82283C19.5375 7.32283 20.6031 8.04158 21.5188 8.9572C22.05 9.48845 22.5125 10.0697 22.9094 10.6978C23.0031 10.8478 23.1688 10.9385 23.3438 10.9385H25.15C25.3656 10.9385 25.5031 10.7135 25.4063 10.5228C23.3688 6.4697 19.2375 3.83533 14.625 3.7822C7.8719 3.69783 2.26252 9.22595 2.25002 15.9728C2.23752 22.7322 7.71565 28.2166 14.475 28.2166C19.1469 28.2166 23.3469 25.5728 25.4063 21.4728C25.5031 21.2822 25.3625 21.0572 25.15 21.0572Z" fill="black"/>
</svg>
