<svg width="55" height="57" viewBox="0 0 55 57" fill="none" xmlns="http://www.w3.org/2000/svg">
<g filter="url(#filter0_d_576_6500)">
<path d="M40.5125 1.85156C33.6751 14.4769 15.8963 9.14697 8.04178 20.7731L11.8387 30.8968C13.9881 28.7691 16.5049 26.9137 19.6089 25.6175L20.513 25.2397L20.8255 26.1685C22.0535 29.8198 23.1194 35.4033 23.4485 40.5732L33.4696 37.5563C35.6518 25.7669 39.7552 15.3668 50.9739 19.1578C50.9156 19.0692 50.8556 18.9818 50.7938 18.8955C48.329 15.7285 43.2992 13.3145 38.4343 13.6861C37.7454 14.3385 37.0143 14.97 36.2706 15.6148C32.2054 19.1399 27.6764 22.9699 26.4683 32.2897L24.6556 32.0547C25.9321 22.2065 31.0125 17.7576 35.0743 14.2354C37.1052 12.4744 38.8534 10.9238 39.8717 9.05957C40.8629 7.24473 41.2506 5.10381 40.5125 1.85156ZM50.2689 7.90313C47.7772 8.12461 45.1138 8.20332 42.2582 8.06172C42.0621 8.71171 41.7993 9.33966 41.474 9.93555C41.1023 10.6158 40.6644 11.2416 40.1801 11.8338C42.3641 11.9225 44.4989 12.451 46.4208 13.3107L50.269 7.90303L50.2689 7.90313ZM12.079 11.0035C9.73465 12.8223 8.04305 14.9107 6.67664 17.1334L7.28143 18.7457C8.80223 16.8205 10.6135 15.3702 12.6227 14.1891L12.079 11.0035ZM5.69617 19.7162C4.73592 24.3148 4.52332 29.9377 5.4745 34.9201C6.62762 40.9607 9.3911 45.8996 14.2785 47.3501C17.6511 48.3509 22.4474 48.3794 26.6535 46.8622C30.3898 45.5144 33.6461 43.0183 35.3002 38.911L23.5352 42.453C23.5587 43.2997 23.5599 44.1273 23.5348 44.923L21.7106 44.8657C21.8803 39.4712 20.7465 32.2591 19.3918 27.731C15.5392 29.5637 12.6797 32.345 10.2082 35.4981L8.77166 34.3722C9.30487 33.6918 9.86024 33.0221 10.4423 32.3699L5.69617 19.716V19.7162Z" fill="#41C6EB"/>
</g>
<defs>
<filter id="filter0_d_576_6500" x="-1" y="0" width="58" height="58" filterUnits="userSpaceOnUse" color-interpolation-filters="sRGB">
<feFlood flood-opacity="0" result="BackgroundImageFix"/>
<feColorMatrix in="SourceAlpha" type="matrix" values="0 0 0 0 0 0 0 0 0 0 0 0 0 0 0 0 0 0 127 0" result="hardAlpha"/>
<feOffset dy="4"/>
<feGaussianBlur stdDeviation="2"/>
<feComposite in2="hardAlpha" operator="out"/>
<feColorMatrix type="matrix" values="0 0 0 0 0 0 0 0 0 0 0 0 0 0 0 0 0 0 0.25 0"/>
<feBlend mode="normal" in2="BackgroundImageFix" result="effect1_dropShadow_576_6500"/>
<feBlend mode="normal" in="SourceGraphic" in2="effect1_dropShadow_576_6500" result="shape"/>
</filter>
</defs>
</svg>
