<svg width="48" height="48" viewBox="0 0 48 48" fill="none" xmlns="http://www.w3.org/2000/svg">
<path d="M42 10.5C42 10.5 40.3481 10.5 39.1397 10.6303C37.3584 10.8178 35.1966 11.3803 33.54 11.8697C30.2531 12.8438 27.0403 14.1122 23.4291 15.8625C21.6834 16.7109 20.9916 17.1141 18.9291 18.3122L18.5072 18.5625C15.4181 20.3438 13.155 22.3125 11.5894 24.5906C9.87094 27.0834 9 30 9 33.2475C9 37.0669 10.4728 40.4756 13.1475 42.8447C15.8438 45.2363 19.5994 46.5 24 46.5C28.3837 46.5 32.1459 45.1575 34.875 42.6159C37.5328 40.1456 39 36.6731 39 32.8387C39 30.495 38.4197 28.4325 37.8591 26.4431C36.6787 22.2534 35.6597 18.6347 40.1756 12.9309C40.5703 12.4331 42 10.5 42 10.5ZM20.5312 11.2078C15.7941 8.6325 9.8175 7.5 7.5 7.5C7.5 7.5 9.67781 10.1428 10.2328 12.6937C10.7878 15.2447 10.8459 17.2509 10.5056 21C12.1875 19.08 14.3109 17.5172 17.0044 15.9628L17.4244 15.7191C19.5 14.5125 20.2716 14.0625 22.125 13.1634C22.395 13.0322 22.6631 12.9047 22.9294 12.7781C22.1786 12.184 21.376 11.6585 20.5312 11.2078ZM32.3672 4.5C32.3672 4.5 28.38 4.53375 24.2934 6.49688C23.2483 7.00042 22.2377 7.57261 21.2681 8.20969C21.5013 8.32781 21.7325 8.44906 21.9619 8.57344C22.2844 8.74875 22.6266 8.94844 22.9838 9.16313C24.0433 9.81298 25.0319 10.5721 25.9331 11.4281C28.2366 10.4522 32.7769 8.98125 34.4428 8.49563C33.6928 6.70031 32.3672 4.5 32.3672 4.5ZM16.5 1.5C15 2.51531 13.3837 5.35312 13.3837 5.35312C14.9362 5.75006 16.467 6.22726 17.97 6.78281L19.6247 5.69906C20.3916 5.1975 21.1763 4.73438 21.9684 4.31437C21.9666 4.3125 18.9928 2.26594 16.5 1.5Z" fill="#41C6EB"/>
</svg>
